<?xml version="1.0" standalone="no"?>
<!DOCTYPE svg PUBLIC "-//W3C//DTD SVG 20010904//EN"
 "http://www.w3.org/TR/2001/REC-SVG-20010904/DTD/svg10.dtd">
<svg version="1.0" xmlns="http://www.w3.org/2000/svg"
 width="364.000000pt" height="360.000000pt" viewBox="0 0 364.000000 360.000000"
 preserveAspectRatio="xMidYMid meet">

<g transform="translate(0.000000,360.000000) scale(0.100000,-0.100000)"
fill="#000000" stroke="none">
<path d="M1630 3550 c-109 -14 -262 -48 -365 -82 -75 -24 -318 -136 -363 -166
-10 -7 3 -66 63 -283 43 -151 80 -280 84 -286 5 -9 26 1 72 35 118 86 260 151
419 194 56 15 119 21 245 24 l170 5 227 232 227 232 -29 12 c-41 18 -171 51
-270 68 -104 19 -378 27 -480 15z"/>
<path d="M2450 3135 l-214 -214 45 -17 c245 -99 475 -310 610 -560 15 -29 25
-32 330 -107 173 -42 317 -77 321 -77 10 0 -17 104 -57 220 -138 397 -404 719
-786 948 l-35 21 -214 -214z"/>
<path d="M574 3037 c-50 -50 -109 -114 -131 -142 -233 -290 -374 -678 -377
-1034 l-1 -124 285 -77 c157 -43 286 -76 287 -75 2 1 -1 49 -6 108 -20 265 36
507 169 727 l49 79 -86 308 c-47 169 -89 311 -92 315 -4 4 -47 -34 -97 -85z"/>
<path d="M1237 2289 l-167 -150 0 -219 0 -218 371 -334 c205 -183 376 -333
382 -333 6 0 176 149 378 330 l369 330 0 225 0 225 -165 148 c-90 81 -166 147
-170 147 -3 0 -96 -81 -206 -181 -110 -99 -204 -179 -209 -177 -4 2 -96 82
-204 178 -108 96 -199 176 -204 178 -4 1 -83 -66 -175 -149z"/>
<path d="M3004 2003 c4 -16 9 -89 12 -163 11 -246 -45 -462 -174 -673 -23 -37
-42 -74 -42 -82 0 -21 158 -616 166 -624 3 -3 58 48 123 114 236 243 393 539
461 874 24 119 43 338 34 397 l-6 42 -284 71 c-156 39 -287 71 -290 71 -4 0
-3 -12 0 -27z"/>
<path d="M106 1398 c107 -465 414 -882 828 -1125 l59 -34 213 212 213 213 -98
47 c-242 116 -425 286 -549 511 l-42 75 -307 81 c-170 45 -313 82 -320 82 -8
0 -7 -17 3 -62z"/>
<path d="M2517 821 c-190 -139 -449 -221 -696 -221 l-106 0 -235 -235 c-152
-152 -229 -236 -219 -239 375 -121 755 -121 1119 0 102 34 305 126 344 156 19
15 17 23 -54 294 -40 153 -76 282 -79 286 -4 4 -37 -14 -74 -41z"/>
</g>
</svg>
